<?xml version="1.0" encoding="UTF-8" standalone="no"?>
<svg
   id="Layer_1"
   data-name="Layer 1"
   viewBox="0 0 128 128"
   version="1.1"
   sodipodi:docname="email-icon.svg"
   inkscape:version="1.4.2 (f4327f4, 2025-05-13)"
   xmlns:inkscape="http://www.inkscape.org/namespaces/inkscape"
   xmlns:sodipodi="http://sodipodi.sourceforge.net/DTD/sodipodi-0.dtd"
   xmlns="http://www.w3.org/2000/svg"
   xmlns:svg="http://www.w3.org/2000/svg">
  <defs
     id="defs1" />
  <sodipodi:namedview
     id="namedview1"
     pagecolor="#ffffff"
     bordercolor="#000000"
     borderopacity="0.25"
     inkscape:showpageshadow="2"
     inkscape:pageopacity="0.0"
     inkscape:pagecheckerboard="0"
     inkscape:deskcolor="#d1d1d1"
     inkscape:zoom="6.3046875"
     inkscape:cx="57.179678"
     inkscape:cy="53.055762"
     inkscape:window-width="1920"
     inkscape:window-height="1009"
     inkscape:window-x="-8"
     inkscape:window-y="-8"
     inkscape:window-maximized="1"
     inkscape:current-layer="Layer_1"
     showguides="true"
     inkscape:lockguides="false" />
  <title
     id="title1">EMAIL</title>
  <path
     d="m 128.00837,40.342703 c 0,-0.01935 0,-0.03655 -0.005,-0.0559 -0.005,-0.01935 -0.008,-0.06772 -0.01,-0.101046 a 1.863978,1.863978 0 0 0 -0.0892,-0.438583 c -0.006,-0.01935 0,-0.03977 -0.0118,-0.05912 -0.0118,-0.01935 -0.0108,-0.01612 -0.014,-0.02472 a 1.863978,1.863978 0 0 0 -0.24402,-0.437508 c -0.0226,-0.0301 -0.0462,-0.05697 -0.0709,-0.086 a 1.8865521,1.8865521 0 0 0 -0.33324,-0.316038 c -0.0129,-0.0097 -0.0237,-0.0215 -0.0365,-0.0301 a 1.8747276,1.8747276 0 0 0 -0.44503,-0.214992 c -0.0366,-0.0129 -0.0731,-0.02365 -0.1075,-0.0344 a 1.862903,1.862903 0 0 0 -0.50953,-0.07847 H 2.5069617 a 1.862903,1.862903 0 0 0 -0.5095303,0.07847 c -0.037624,0.01075 -0.073097,0.0215 -0.1074959,0.0344 a 1.8747276,1.8747276 0 0 0 -0.4450328,0.214992 c -0.0129,0.0086 -0.023649,0.02042 -0.036549,0.0301 a 1.8865521,1.8865521 0 0 0 -0.3332366,0.316038 c -0.023649,0.02902 -0.048373,0.0559 -0.070947,0.086 A 1.863978,1.863978 0 0 0 0.7601542,39.66333 c 0,0.0086 -0.01075,0.01612 -0.013975,0.02472 -0.00322,0.0086 -0.00537,0.03977 -0.011824,0.05912 a 1.863978,1.863978 0 0 0 -0.089222,0.438583 c 0,0.0344 -0.00968,0.06772 -0.00968,0.101046 0,0.03332 -0.00537,0.03655 -0.00537,0.0559 v 85.582811 c 0,0.0247 0.00645,0.0484 0.00753,0.0731 a 1.8672029,1.8672029 0 0 0 0.020424,0.20209 c 0.0086,0.0548 0.016124,0.1075 0.029024,0.1634 a 1.8704277,1.8704277 0 0 0 0.060198,0.19241 c 0.018274,0.0505 0.035474,0.10105 0.058048,0.14942 a 1.8586032,1.8586032 0 0 0 0.099971,0.1849 c 0.025799,0.043 0.051598,0.0871 0.080622,0.12792 a 1.8736526,1.8736526 0 0 0 0.1343698,0.16339 c 0.035474,0.0387 0.070947,0.0774 0.1074958,0.11395 0.022574,0.0204 0.039774,0.0452 0.063423,0.0656 0.023649,0.0204 0.038699,0.0183 0.055898,0.0323 a 1.8661279,1.8661279 0 0 0 0.4858812,0.28271 c 0.037624,0.0151 0.076322,0.0237 0.1150206,0.0355 a 1.8618281,1.8618281 0 0 0 0.5245797,0.0914 c 0.0129,0 0.024724,0.007 0.037624,0.007 h 0.024724 123.5686337 0.0247 c 0.0129,0 0.0247,-0.007 0.0365,-0.007 a 1.8618281,1.8618281 0 0 0 0.52565,-0.0914 c 0.0376,-0.0118 0.0753,-0.0204 0.1075,-0.0355 a 1.8661279,1.8661279 0 0 0 0.48695,-0.28271 c 0.0172,-0.014 0.0387,-0.0183 0.0559,-0.0323 0.0172,-0.014 0.0409,-0.0452 0.0634,-0.0656 0.0387,-0.0365 0.0742,-0.0742 0.1075,-0.11395 a 1.8736526,1.8736526 0 0 0 0.13437,-0.16339 c 0.029,-0.0408 0.0548,-0.0838 0.0806,-0.12792 a 1.8586032,1.8586032 0 0 0 0.1,-0.1849 c 0.0226,-0.0484 0.0398,-0.0989 0.058,-0.14942 a 1.8704277,1.8704277 0 0 0 0.0602,-0.19241 c 0.0129,-0.0537 0.0204,-0.1075 0.029,-0.1634 a 1.8672029,1.8672029 0 0 0 0.0204,-0.20209 c 0,-0.0247 0.008,-0.0484 0.008,-0.0731 z m -83.25554,38.8318 18.336641,15.777166 a 1.8822523,1.8822523 0 0 0 2.45413,0 L 83.881318,79.174503 122.05525,124.04434 H 6.5799794 Z M 4.388139,120.81409 V 44.44367 L 41.90419,76.720373 Z M 86.729958,76.720373 124.24602,44.44367 v 76.37042 z M 121.05446,42.223881 82.888056,75.064937 c -0.0064,0.0054 -0.01505,0.0086 -0.0215,0.01505 -0.0065,0.0064 -0.0129,0.01505 -0.02042,0.0215 L 64.317074,91.044195 45.788015,75.101486 c -0.0075,-0.0064 -0.0129,-0.01505 -0.02043,-0.0215 l -0.0215,-0.01505 L 7.5775408,42.223881 Z"
     id="path1"
     style="stroke-width:1.07496" />
  <path
     style="fill:#ffffff;fill-opacity:1;stroke-width:0.158612"
     d="M 36.099001,66.632516 7.8807789,42.349443 36.151543,42.309353 c 15.548919,-0.02205 40.946587,-0.02205 56.43926,0 L 120.7593,42.349443 93.648546,65.67854 C 78.737633,78.509542 66.038166,89.436926 65.427509,89.961614 l -1.110285,0.953977 z"
     id="path3" />
  <path
     style="fill:#ffffff;fill-opacity:1;stroke-width:0.158612"
     d="M 7.3226571,123.32513 C 15.862455,113.14375 44.700866,79.421179 44.831838,79.46328 c 0.100386,0.03227 4.026036,3.364896 8.723668,7.405839 4.697632,4.040943 8.857341,7.614675 9.2438,7.941627 0.616866,0.521882 0.804146,0.594459 1.533979,0.594459 h 0.831329 l 6.317322,-5.429986 c 3.474526,-2.986492 7.665698,-6.590953 9.313715,-8.009913 1.648016,-1.418961 3.039838,-2.575696 3.092937,-2.570524 0.07096,0.0069 33.778562,39.574368 37.423202,43.928988 l 0.52864,0.63162 H 64.317224 6.7940131 Z"
     id="path4" />
  <path
     style="fill:#ffffff;fill-opacity:1;stroke-width:0.158612"
     d="M 4.44114,82.563193 V 44.589969 l 0.4361834,0.402036 c 0.2399008,0.22112 8.5869446,7.408237 18.5489856,15.97137 9.962042,8.563135 18.150224,15.629882 18.19596,15.703884 C 41.687211,76.77234 5.9829936,118.94152 4.7435539,120.2236 4.4460478,120.53134 4.44114,119.92016 4.44114,82.563193 Z"
     id="path5" />
  <path
     style="fill:#ffffff;fill-opacity:1;stroke-width:0.158612"
     d="M 105.51452,98.643275 C 87.339859,77.280817 86.92183,76.774714 87.211931,76.484613 87.375216,76.321328 95.74498,69.100559 105.81141,60.43846 l 18.30259,-15.749272 0.0403,18.934216 c 0.0222,10.41382 0.0222,27.47239 0,37.907936 l -0.0403,18.97371 z"
     id="path6" />
</svg>
